<?xml version="1.0" encoding="utf-8"?>
<!-- Generator: Adobe Illustrator 21.0.0, SVG Export Plug-In . SVG Version: 6.00 Build 0)  -->
<svg version="1.1" id="Layer_1" xmlns="http://www.w3.org/2000/svg" xmlns:xlink="http://www.w3.org/1999/xlink" x="0px" y="0px"
	 viewBox="0 0 197.3 172.2" style="enable-background:new 0 0 197.3 172.2;" xml:space="preserve">
<style type="text/css">
	.st0{fill:#130E13;}
	.st1{fill:#537F73;}
	.st2{fill:#F39F53;}
	.st3{fill:#E9CBB6;}
	.st4{fill:#101C27;}
	.st5{fill:#E66F50;}
	.st6{fill:#336969;}
	.st7{fill:none;stroke:#F39F53;stroke-width:6;stroke-miterlimit:10;}
	.st8{fill:#0F0D0F;}
	.st9{fill:#192423;}
	.st10{fill:none;stroke:#F39F53;stroke-width:3;stroke-miterlimit:10;}
	.st11{fill-rule:evenodd;clip-rule:evenodd;fill:#E9CBB6;}
	.st12{fill:#101C27;fill-opacity:0.55;}
	.st13{fill-rule:evenodd;clip-rule:evenodd;fill:#101C27;}
	.st14{fill-rule:evenodd;clip-rule:evenodd;fill:none;stroke:#E9CBB6;stroke-miterlimit:10;}
	.st15{fill:none;stroke:#E9CBB6;stroke-miterlimit:10;}
</style>
<path class="st3" d="M149.4,26.9H46.7c-4.4,0-7.9,3.5-7.9,7.9v102.7c0,4.4,3.5,7.9,7.9,7.9h102.7c4.4,0,7.9-3.5,7.9-7.9V34.8
	C157.3,30.4,153.7,26.9,149.4,26.9z M74.6,127.9H56.4V71.3h18.2V127.9z M65.4,64.3c-5.9,0-10.8-4.8-10.8-10.8s4.8-10.8,10.8-10.8
	c5.9,0,10.8,4.8,10.8,10.8S71.4,64.3,65.4,64.3z M139.8,127.9h-17.4V99.3c0,0,0.7-14.3-8.7-14.3c-8.3,0-10.5,8.2-10.7,13.7v29.1
	H85.4V71.3h17.4v6.8c1.4-1.9,7.5-9.2,18.8-8.7c12.9,0.5,17.2,9.4,17.5,16.7c0.3,7.3,0.6,13.2,0.6,13.2V127.9z"/>
</svg>
