<?xml version="1.0" encoding="utf-8"?>
<!-- Generator: Adobe Illustrator 21.0.0, SVG Export Plug-In . SVG Version: 6.00 Build 0)  -->
<svg version="1.1" id="Layer_1" xmlns="http://www.w3.org/2000/svg" xmlns:xlink="http://www.w3.org/1999/xlink" x="0px" y="0px"
	 viewBox="0 0 197.3 172.2" style="enable-background:new 0 0 197.3 172.2;" xml:space="preserve">
<style type="text/css">
	.st0{fill:#130E13;}
	.st1{fill:#537F73;}
	.st2{fill:#F39F53;}
	.st3{fill:#E9CBB6;}
	.st4{fill:#101C27;}
	.st5{fill:#E66F50;}
	.st6{fill:#336969;}
	.st7{fill:none;stroke:#F39F53;stroke-width:6;stroke-miterlimit:10;}
	.st8{fill:#0F0D0F;}
	.st9{fill:#192423;}
	.st10{fill:none;stroke:#F39F53;stroke-width:3;stroke-miterlimit:10;}
	.st11{fill-rule:evenodd;clip-rule:evenodd;fill:#E9CBB6;}
	.st12{fill:#101C27;fill-opacity:0.55;}
	.st13{fill:#FFFFFF;}
	.st14{fill-rule:evenodd;clip-rule:evenodd;fill:#101C27;}
	.st15{fill-rule:evenodd;clip-rule:evenodd;fill:none;stroke:#E9CBB6;stroke-miterlimit:10;}
	.st16{fill:none;stroke:#E9CBB6;stroke-miterlimit:10;}
</style>
<path class="st11" d="M98.6,25C64,25,35.9,53,35.9,87.7c0,27.7,18,51.2,42.9,59.5c3.1,0.6,4.3-1.4,4.3-3c0-1.5-0.1-5.4-0.1-10.7
	c-17.4,3.8-21.1-8.4-21.1-8.4c-2.9-7.2-7-9.2-7-9.2c-5.7-3.9,0.4-3.8,0.4-3.8c6.3,0.4,9.6,6.5,9.6,6.5c5.6,9.6,14.7,6.8,18.2,5.2
	c0.6-4.1,2.2-6.8,4-8.4c-13.9-1.6-28.6-7-28.6-31c0-6.8,2.4-12.4,6.5-16.8c-0.6-1.6-2.8-8,0.6-16.6c0,0,5.3-1.7,17.2,6.4
	c5-1.4,10.4-2.1,15.7-2.1c5.3,0,10.7,0.7,15.7,2.1c12-8.1,17.2-6.4,17.2-6.4c3.4,8.6,1.3,15,0.6,16.6c4,4.4,6.4,10,6.4,16.8
	c0,24.1-14.7,29.4-28.6,30.9c2.3,1.9,4.3,5.8,4.3,11.6c0,8.4-0.1,15.1-0.1,17.2c0,1.7,1.1,3.6,4.3,3c24.9-8.3,42.8-31.8,42.8-59.5
	C161.4,53,133.3,25,98.6,25z"/>
</svg>
