<?xml version="1.0" encoding="utf-8"?>
<!-- Generator: Adobe Illustrator 21.0.0, SVG Export Plug-In . SVG Version: 6.00 Build 0)  -->
<svg version="1.1" id="Layer_1" xmlns="http://www.w3.org/2000/svg" xmlns:xlink="http://www.w3.org/1999/xlink" x="0px" y="0px"
	 viewBox="0 0 100 100" style="enable-background:new 0 0 100 100;" xml:space="preserve">
<style type="text/css">
	.st0{fill:#130E13;}
	.st1{fill:#537F73;}
	.st2{fill:#F39F53;}
	.st3{fill:#E9CBB6;}
	.st4{fill:#101C27;}
	.st5{fill:#E66F50;}
	.st6{fill:#336969;}
	.st7{fill:none;stroke:#F39F53;stroke-width:6;stroke-miterlimit:10;}
	.st8{fill:#0F0D0F;}
	.st9{fill:#192423;}
	.st10{fill:none;stroke:#F39F53;stroke-width:3;stroke-miterlimit:10;}
	.st11{fill-rule:evenodd;clip-rule:evenodd;fill:#E9CBB6;}
	.st12{fill:#101C27;fill-opacity:0.55;}
	.st13{fill-rule:evenodd;clip-rule:evenodd;fill:#101C27;}
	.st14{fill-rule:evenodd;clip-rule:evenodd;fill:none;stroke:#E9CBB6;stroke-miterlimit:10;}
	.st15{fill:none;stroke:#E9CBB6;stroke-miterlimit:10;}
</style>
<g>
	<circle class="st13" cx="50" cy="50" r="43.5"/>
	<g>
		<path class="st14" d="M39.2,50.5c0,10.8,4.1,20.4,10.5,26.5c6.4-6.1,10.5-15.7,10.5-26.5S56,30.1,49.7,24
			C43.3,30.1,39.2,39.7,39.2,50.5z"/>
		<ellipse class="st14" cx="49.7" cy="51.1" rx="5.9" ry="11.1"/>
	</g>
	<g>
		<line class="st15" x1="23.3" y1="46.2" x2="75.7" y2="46.2"/>
		<path class="st15" d="M24.9,49.9H17v-7.4h7.9c2,0,3.7,1.7,3.7,3.7v0C28.6,48.2,27,49.9,24.9,49.9z"/>
		<path class="st15" d="M74.1,49.9H82v-7.4h-7.9c-2,0-3.7,1.7-3.7,3.7v0C70.4,48.2,72,49.9,74.1,49.9z"/>
	</g>
</g>
</svg>
