<?xml version="1.0" encoding="utf-8"?>
<!-- Generator: Adobe Illustrator 21.0.0, SVG Export Plug-In . SVG Version: 6.00 Build 0)  -->
<svg version="1.1" id="Layer_1" xmlns="http://www.w3.org/2000/svg" xmlns:xlink="http://www.w3.org/1999/xlink" x="0px" y="0px"
	 viewBox="0 0 100 100" style="enable-background:new 0 0 100 100;" xml:space="preserve">
<style type="text/css">
	.st0{fill:#130E13;}
	.st1{fill:#537F73;}
	.st2{fill:#F39F53;}
	.st3{fill:#E9CBB6;}
	.st4{fill:#101C27;}
	.st5{fill:#E66F50;}
	.st6{fill:#336969;}
	.st7{fill:none;stroke:#F39F53;stroke-width:6;stroke-miterlimit:10;}
	.st8{fill:#0F0D0F;}
	.st9{fill:#192423;}
	.st10{fill:none;stroke:#F39F53;stroke-width:3;stroke-miterlimit:10;}
	.st11{fill-rule:evenodd;clip-rule:evenodd;fill:#E9CBB6;}
	.st12{fill:#101C27;fill-opacity:0.55;}
	.st13{fill-rule:evenodd;clip-rule:evenodd;fill:#101C27;}
	.st14{fill-rule:evenodd;clip-rule:evenodd;fill:none;stroke:#E9CBB6;stroke-miterlimit:10;}
	.st15{fill:none;stroke:#E9CBB6;stroke-miterlimit:10;}
</style>
<g>
	<circle class="st13" cx="50" cy="50" r="43.5"/>
	<g>
		<polygon class="st15" points="67.7,56.5 58.6,42.5 62.7,42.4 50.5,23.7 38.3,42.4 42.5,42.5 33.3,56.5 42.7,56.7 33.3,71 
			50.5,71.5 67.7,71 58.4,56.7 		"/>
		<polygon class="st15" points="40.6,59.9 38.5,56.6 33.3,56.5 37.8,49.7 31.6,40.2 23.4,52.8 27.1,52.9 20,63.7 31.6,64 38,63.8 		
			"/>
		<polygon class="st15" points="73.9,51.8 77.7,51.7 69.5,39.2 62.9,49.1 64.7,51.8 65,51.8 64.8,52 67.7,56.5 61.8,56.6 60.1,59.3 
			62.3,62.7 69.5,62.9 81,62.6 		"/>
	</g>
</g>
</svg>
