<?xml version="1.0" encoding="utf-8"?>
<!-- Generator: Adobe Illustrator 21.0.0, SVG Export Plug-In . SVG Version: 6.00 Build 0)  -->
<svg version="1.1" id="Layer_1" xmlns="http://www.w3.org/2000/svg" xmlns:xlink="http://www.w3.org/1999/xlink" x="0px" y="0px"
	 viewBox="0 0 100 100" style="enable-background:new 0 0 100 100;" xml:space="preserve">
<style type="text/css">
	.st0{fill:#130E13;}
	.st1{fill:#537F73;}
	.st2{fill:#F39F53;}
	.st3{fill:#E9CBB6;}
	.st4{fill:#101C27;}
	.st5{fill:#E66F50;}
	.st6{fill:#336969;}
	.st7{fill:none;stroke:#F39F53;stroke-width:6;stroke-miterlimit:10;}
	.st8{fill:#0F0D0F;}
	.st9{fill:#192423;}
	.st10{fill:none;stroke:#F39F53;stroke-width:3;stroke-miterlimit:10;}
	.st11{fill-rule:evenodd;clip-rule:evenodd;fill:#E9CBB6;}
	.st12{fill:#101C27;fill-opacity:0.55;}
	.st13{fill-rule:evenodd;clip-rule:evenodd;fill:#101C27;}
	.st14{fill-rule:evenodd;clip-rule:evenodd;fill:none;stroke:#E9CBB6;stroke-miterlimit:10;}
	.st15{fill:none;stroke:#E9CBB6;stroke-miterlimit:10;}
</style>
<g>
	<circle class="st13" cx="50" cy="50" r="43.5"/>
	<g>
		<g>
			<ellipse class="st15" cx="40.6" cy="48.7" rx="6" ry="3.1"/>
			<circle class="st15" cx="38.1" cy="38.4" r="2.6"/>
			<circle class="st15" cx="28.7" cy="44" r="2.6"/>
			<circle class="st15" cx="28.7" cy="53.2" r="2.6"/>
			<circle class="st15" cx="48.1" cy="38.4" r="2.6"/>
			<circle class="st15" cx="38.1" cy="59" r="2.6"/>
			<circle class="st15" cx="48.1" cy="59" r="2.6"/>
		</g>
		<path class="st15" d="M53.9,53c-0.1,0-0.2-0.1-0.2-0.1c-2.1-0.6-3.9-1.8-3.9-4.3c0-2.2,1.6-3.5,3.6-4.2c3.2-1,5.8-3,5.8-6.7
			c0-3.7-3-6.7-6.7-6.7H36.8c-0.3,0-0.5,0-0.8,0c-9.3,0.5-16.7,8.1-16.7,17.5c0,8.7,6.4,15.9,14.7,17.3c0.6,0.2,1.2,0.3,1.8,0.3
			h16.6c3.7,0,6.7-3,6.7-6.7C59.2,56.2,56.9,54,53.9,53z"/>
	</g>
	<g>
		<g>
			<path class="st15" d="M72,53.2c0,6.6-0.9,12.7-2.4,17.3c-1.5-4.4-2.4-10.5-2.4-17.3c0-6.7,0.9-12.8,2.4-17.3
				C71.1,40.5,72,46.5,72,53.2z"/>
		</g>
		<path class="st15" d="M72.4,31.5c0,1.5-1.2,2.8-2.8,2.8s-2.8-1.2-2.8-2.8s2.8-5.5,2.8-5.5S72.4,30,72.4,31.5z"/>
	</g>
</g>
</svg>
