<?xml version="1.0" encoding="utf-8"?>
<!-- Generator: Adobe Illustrator 21.0.0, SVG Export Plug-In . SVG Version: 6.00 Build 0)  -->
<svg version="1.1" id="Layer_1" xmlns="http://www.w3.org/2000/svg" xmlns:xlink="http://www.w3.org/1999/xlink" x="0px" y="0px"
	 viewBox="0 0 100 100" style="enable-background:new 0 0 100 100;" xml:space="preserve">
<style type="text/css">
	.st0{fill:#130E13;}
	.st1{fill:#537F73;}
	.st2{fill:#F39F53;}
	.st3{fill:#E9CBB6;}
	.st4{fill:#101C27;}
	.st5{fill:#E66F50;}
	.st6{fill:#336969;}
	.st7{fill:none;stroke:#F39F53;stroke-width:6;stroke-miterlimit:10;}
	.st8{fill:#0F0D0F;}
	.st9{fill:#192423;}
	.st10{fill:none;stroke:#F39F53;stroke-width:3;stroke-miterlimit:10;}
	.st11{fill-rule:evenodd;clip-rule:evenodd;fill:#E9CBB6;}
	.st12{fill:#101C27;fill-opacity:0.55;}
	.st13{fill-rule:evenodd;clip-rule:evenodd;fill:#101C27;}
	.st14{fill-rule:evenodd;clip-rule:evenodd;fill:none;stroke:#E9CBB6;stroke-miterlimit:10;}
	.st15{fill:none;stroke:#E9CBB6;stroke-miterlimit:10;}
</style>
<g>
	<circle class="st13" cx="50" cy="50" r="43.5"/>
	<g>
		<circle class="st15" cx="51.3" cy="46.4" r="2.7"/>
		<circle class="st15" cx="54.9" cy="28.8" r="3.3"/>
		<line class="st15" x1="50.2" y1="49" x2="45.3" y2="57.5"/>
		<line class="st15" x1="53.3" y1="59.8" x2="51.2" y2="69.4"/>
		<line class="st15" x1="51.6" y1="49.2" x2="53.3" y2="58.8"/>
		<line class="st15" x1="55.4" y1="34.4" x2="60.7" y2="40.8"/>
		<line class="st15" x1="61.1" y1="41.7" x2="69.2" y2="40.1"/>
		<line class="st15" x1="37.1" y1="38.7" x2="42.3" y2="32.3"/>
		<line class="st15" x1="42.8" y1="31.4" x2="50.9" y2="33"/>
		<line class="st15" x1="44.5" y1="58" x2="36" y2="62.8"/>
		<line class="st15" x1="34.9" y1="63.6" x2="38.2" y2="67.6"/>
		<line class="st15" x1="50.9" y1="70.7" x2="56" y2="71.5"/>
		<ellipse transform="matrix(0.146 -0.9893 0.9893 0.146 6.9441 83.9575)" class="st15" cx="52.1" cy="38" rx="5.5" ry="4"/>
	</g>
</g>
</svg>
