<?xml version="1.0" encoding="utf-8"?>
<!-- Generator: Adobe Illustrator 21.0.0, SVG Export Plug-In . SVG Version: 6.00 Build 0)  -->
<svg version="1.1" id="Layer_1" xmlns="http://www.w3.org/2000/svg" xmlns:xlink="http://www.w3.org/1999/xlink" x="0px" y="0px"
	 viewBox="0 0 100 100" style="enable-background:new 0 0 100 100;" xml:space="preserve">
<style type="text/css">
	.st0{fill:#130E13;}
	.st1{fill:#537F73;}
	.st2{fill:#F39F53;}
	.st3{fill:#E9CBB6;}
	.st4{fill:#101C27;}
	.st5{fill:#E66F50;}
	.st6{fill:#336969;}
	.st7{fill:none;stroke:#F39F53;stroke-width:6;stroke-miterlimit:10;}
	.st8{fill:#0F0D0F;}
	.st9{fill:#192423;}
	.st10{fill:none;stroke:#F39F53;stroke-width:3;stroke-miterlimit:10;}
	.st11{fill-rule:evenodd;clip-rule:evenodd;fill:#E9CBB6;}
	.st12{fill:#101C27;fill-opacity:0.55;}
	.st13{fill-rule:evenodd;clip-rule:evenodd;fill:#101C27;}
	.st14{fill-rule:evenodd;clip-rule:evenodd;fill:none;stroke:#E9CBB6;stroke-miterlimit:10;}
	.st15{fill:none;stroke:#E9CBB6;stroke-miterlimit:10;}
</style>
<g>
	<circle class="st13" cx="50" cy="50" r="43.5"/>
	<g>
		<path class="st15" d="M61.9,70.5H38.6c-2.5,0-4.6-2.1-4.6-4.6V37.8c0-2.5,2.1-4.6,4.6-4.6h23.3c2.5,0,4.6,2.1,4.6,4.6v28.1
			C66.5,68.4,64.4,70.5,61.9,70.5z"/>
		<rect x="44.4" y="26" class="st15" width="12.3" height="6.9"/>
		<path class="st15" d="M38.7,70.5c-0.1,0.3-0.2,0.7-0.2,1.1c0,1.6,1.3,2.9,2.9,2.9c1.6,0,2.9-1.3,2.9-2.9c0-0.4-0.1-0.7-0.2-1.1
			H38.7z"/>
		<path class="st15" d="M61.9,70.5h-5.1c-0.1,0.3-0.2,0.7-0.2,1.1c0,1.6,1.3,2.9,2.9,2.9c1.6,0,2.9-1.3,2.9-2.9
			c0-0.4-0.1-0.7-0.2-1.1C62.2,70.5,62,70.5,61.9,70.5z"/>
		<line class="st15" x1="41.2" y1="39.3" x2="59.3" y2="39.3"/>
	</g>
</g>
</svg>
