<?xml version="1.0" encoding="utf-8"?>
<!-- Generator: Adobe Illustrator 21.0.0, SVG Export Plug-In . SVG Version: 6.00 Build 0)  -->
<svg version="1.1" id="Layer_1" xmlns="http://www.w3.org/2000/svg" xmlns:xlink="http://www.w3.org/1999/xlink" x="0px" y="0px"
	 viewBox="0 0 1366 1112" style="enable-background:new 0 0 1366 1112;" xml:space="preserve">
<style type="text/css">
	.st0{fill:#130E13;}
	.st1{fill:#537F73;}
	.st2{fill:#F39F53;}
	.st3{fill:#E9CBB6;}
	.st4{fill:#E66F50;}
	.st5{fill:#336969;}
	.st6{fill:#101C27;}
	.st7{fill:none;stroke:#F39F53;stroke-width:6;stroke-miterlimit:10;}
	.st8{fill:#0F0D0F;}
	.st9{fill:#192423;}
	.st10{fill:none;stroke:#F39F53;stroke-width:3;stroke-miterlimit:10;}
	.st11{fill-rule:evenodd;clip-rule:evenodd;fill:#E9CBB6;}
	.st12{fill:#101C27;fill-opacity:0.55;}
	.st13{fill-rule:evenodd;clip-rule:evenodd;fill:#101C27;}
	.st14{fill-rule:evenodd;clip-rule:evenodd;fill:none;stroke:#E9CBB6;stroke-miterlimit:10;}
	.st15{fill:none;stroke:#E9CBB6;stroke-miterlimit:10;}
</style>
<polygon class="st0" points="1366,768 1366,0 0,0 0,768 0.5,768 0.5,1112 1366.5,1112 1366.5,768 "/>
<path class="st6" d="M1108,532.5c0-235-190.5-425.5-425.5-425.5S257,297.5,257,532.5c0,87.1,26.2,168.1,71.1,235.5H328
	C404,883.6,534.8,960,683.5,960S963,883.6,1039,768h-2.1C1081.8,700.6,1108,619.6,1108,532.5z"/>
<g>
	<line class="st7" x1="646.8" y1="844.4" x2="684.7" y2="876.1"/>
	<line class="st7" x1="718.7" y1="844.4" x2="680.8" y2="876.1"/>
</g>
</svg>
