<?xml version="1.0" encoding="utf-8"?>
<!-- Generator: Adobe Illustrator 21.0.0, SVG Export Plug-In . SVG Version: 6.00 Build 0)  -->
<svg version="1.1" id="Layer_1" xmlns="http://www.w3.org/2000/svg" xmlns:xlink="http://www.w3.org/1999/xlink" x="0px" y="0px"
	 viewBox="0 0 1366 768" style="enable-background:new 0 0 1366 768;" xml:space="preserve">
<style type="text/css">
	.st0{fill:#130E13;}
	.st1{fill:#537F73;}
	.st2{fill:#F39F53;}
	.st3{fill:#E9CBB6;}
	.st4{fill:#101C27;}
	.st5{fill:#E66F50;}
	.st6{fill:#336969;}
	.st7{fill:none;stroke:#F39F53;stroke-width:6;stroke-miterlimit:10;}
	.st8{fill:#0F0D0F;}
	.st9{fill:#192423;}
	.st10{fill:none;stroke:#F39F53;stroke-width:3;stroke-miterlimit:10;}
	.st11{fill-rule:evenodd;clip-rule:evenodd;fill:#E9CBB6;}
	.st12{fill:#101C27;fill-opacity:0.55;}
	.st13{fill-rule:evenodd;clip-rule:evenodd;fill:#101C27;}
	.st14{fill-rule:evenodd;clip-rule:evenodd;fill:none;stroke:#E9CBB6;stroke-miterlimit:10;}
	.st15{fill:none;stroke:#E9CBB6;stroke-miterlimit:10;}
</style>
<rect class="st0" width="1366" height="768"/>
<polygon class="st8" points="0,475 0,494 102,494 213,494 343,494 343,475 "/>
<polygon class="st8" points="376.8,180 376.8,327.9 397,327.9 397,162 0,162 0,180 "/>
<polygon class="st3" points="343,327.9 376.8,327.9 376.8,180 0,180 0,475 343,475 "/>
<path class="st8" d="M476.6,345v214H356.5v-65H343v103h147V327.9h-93V345H476.6z M437.8,585h-43.6c-3.4,0-6.2-2.8-6.2-6.2
	c0-3.4,2.8-6.2,6.2-6.2h43.6c3.4,0,6.2,2.8,6.2,6.2C444,582.2,441.2,585,437.8,585z"/>
<rect x="343" y="475" class="st8" width="13.5" height="19"/>
<rect x="376.8" y="327.9" class="st8" width="20.2" height="17.1"/>
<polygon class="st8" points="343,475 356.5,475 356.5,345 376.8,345 376.8,327.9 343,327.9 "/>
<polygon class="st3" points="356.5,494 356.5,559 476.6,559 476.6,345 397,345 397,494 "/>
<polygon class="st3" points="356.5,475 356.5,494 397,494 397,345 376.8,345 376.8,475 "/>
<rect x="356.5" y="345" class="st3" width="20.3" height="130"/>
<path class="st9" d="M437.8,572.6h-43.6c-3.4,0-6.2,2.8-6.2,6.2c0,3.4,2.8,6.2,6.2,6.2h43.6c3.4,0,6.2-2.8,6.2-6.2
	C444,575.3,441.2,572.6,437.8,572.6z"/>
<polygon class="st8" points="80,597 235,597 213,494 102,494 "/>
<path class="st4" d="M403,0H0v3v159h397v165.9h93V597H343V494H213l22,103H80l22-103H0v274h403c126.3-81.1,210-222.8,210-384
	S529.3,81.1,403,0z"/>
</svg>
